<svg width="25" height="25" viewBox="0 0 25 25" fill="none" xmlns="http://www.w3.org/2000/svg">
<path d="M12.4618 0C5.57946 0 0 5.57932 0 12.4616C0 19.3442 5.57946 24.9231 12.4618 24.9231C19.3448 24.9231 24.9237 19.3442 24.9237 12.4616C24.9237 5.57976 19.3448 0.000595235 12.4616 0.000595235L12.4618 0ZM18.1766 17.9732C17.9534 18.3393 17.4743 18.4554 17.1082 18.2307C14.1823 16.4435 10.499 16.0387 6.16116 17.0298C5.74315 17.125 5.32649 16.8631 5.23125 16.4449C5.13557 16.0268 5.39643 15.6101 5.81548 15.5149C10.5625 14.4299 14.6344 14.8973 17.9192 16.9048C18.2853 17.1295 18.4013 17.6071 18.1766 17.9732ZM19.7019 14.5796C19.4207 15.0372 18.8225 15.1815 18.3656 14.9003C15.0159 12.8409 9.90982 12.2446 5.94777 13.4473C5.43393 13.6025 4.89122 13.3129 4.73527 12.8C4.58051 12.2862 4.87024 11.7445 5.38318 11.5882C9.90893 10.215 15.5353 10.8802 19.382 13.244C19.8388 13.5253 19.9832 14.1234 19.7019 14.5796ZM19.8329 11.0463C15.8165 8.66072 9.19003 8.44137 5.35536 9.60521C4.73958 9.79196 4.08839 9.44435 3.90179 8.82857C3.71518 8.2125 4.0625 7.56176 4.67872 7.37455C9.08065 6.03824 16.3984 6.29643 21.0225 9.04152C21.5775 9.37024 21.7591 10.0856 21.4302 10.6387C21.1028 11.1926 20.3856 11.3752 19.8335 11.0463H19.8329Z" fill="#ECECEC"/>
</svg>
